
        <svg xmlns="http://www.w3.org/2000/svg" xmlns:xlink="http://www.w3.org/1999/xlink" version="1.1" width="3162.162162162162" 
        height="787.9016872581171" viewBox="0 0 3162.162162162162 787.9016872581171">
			<rect fill="#ffffff" width="3162.162162162162" height="787.9016872581171"/>
			<g transform="scale(8.108108108108107) translate(10, 10)">
				<defs id="SvgjsDefs1176"></defs><g id="SvgjsG1177" featureKey="symbolFeature-0" transform="matrix(1.2102577171565518,0,0,-1.2102577171565518,0,63.10574981371346)" fill="#8b104e">    <title xmlns="http://www.w3.org/2000/svg">M Letter_Artboard 58_SVG</title>    <g xmlns="http://www.w3.org/2000/svg" id="Page-1" stroke="none" stroke-width="1" fill="none" fill-rule="evenodd">        <g id="Artboard" transform="translate(-5037.000000, -836.000000)" fill="#8b104e" fill-rule="nonzero">            <g id="M-Letter_Artboard-58_SVG" transform="translate(5037.000000, 836.000000)">                <path d="M72.4530477,19.468328 C71.2115597,19.4701934 69.9810329,19.7007053 68.8230477,20.148328 L68.8230477,20.148328 L68.3130477,20.358328 C67.7530477,20.608328 67.3130477,20.848328 66.8930477,20.628328 C66.8298419,20.5933591 66.7696366,20.5532222 66.7130477,20.508328 C66.49559,20.2238395 66.4117309,19.8592346 66.4830477,19.508328 C66.6646896,18.9345967 66.9920099,18.4177752 67.4330477,18.008328 L68.0030477,17.448328 L68.0030477,17.448328 L68.5130477,16.948328 C72.1655329,13.0215083 72.0701482,6.91258086 68.2968466,3.10170734 C64.5235451,-0.709166175 58.4158626,-0.865072005 54.4530477,2.74832798 L40.7230477,16.278328 C40.5230477,16.458328 40.3430477,16.618328 40.1730477,16.748328 C40.038161,16.8674436 39.8906114,16.971399 39.7330477,17.058328 L39.6830477,17.058328 C39.2606672,17.3347683 38.728602,17.3834785 38.2630477,17.188328 C38.2000214,17.1530649 38.1398392,17.1129434 38.0830477,17.068328 C37.86559,16.7838395 37.7817309,16.4192346 37.8530477,16.068328 C37.9838278,15.5465144 38.1857175,15.045155 38.4530477,14.578328 L38.5030477,14.488328 L38.6030477,14.308328 L38.6030477,14.308328 C40.6801492,9.95748703 39.357147,4.74403708 35.4567802,1.91008108 C31.5564134,-0.923874916 26.1892772,-0.571392966 22.6930477,2.74832798 L2.4530477,22.678328 C-0.974879277,26.621563 -0.789294369,32.5391111 2.87898688,36.2597964 C6.54726813,39.9804817 12.4615887,40.2499805 16.4530477,36.878328 L31.6130477,21.978328 C32.0830477,21.558328 32.9730477,20.888328 33.6130477,21.308328 C33.6834317,21.3494453 33.7503228,21.3962691 33.8130477,21.448328 C33.9236472,21.5644811 34.0117979,21.7000976 34.0730477,21.848328 C34.1087935,21.999578 34.1087935,22.157078 34.0730477,22.308328 C33.9546909,22.7420839 33.7431017,23.1447858 33.4530477,23.488328 L33.3230477,23.648328 L33.3230477,23.648328 L33.3230477,23.648328 C32.0402826,25.1128181 31.2712492,26.9563914 31.1330477,28.898328 C31.0986229,31.8016193 32.192019,34.6050153 34.1830477,36.718328 C38.0492046,40.6223469 44.3409579,40.6759317 48.2730477,36.838328 L61.0730477,24.248328 C61.5730477,23.808328 62.4030477,23.248328 63.0730477,23.618328 L63.1930477,23.698328 C63.2575888,23.7541487 63.3147196,23.8180009 63.3630477,23.888328 L63.3630477,23.958328 C63.5159105,24.239961 63.551831,24.5704291 63.4630477,24.878328 C63.4183779,25.0247376 63.3649482,25.1683298 63.3030477,25.308328 C61.3897429,29.39446 62.4064572,34.2532537 65.7975659,37.2294243 C69.1886747,40.205595 74.138327,40.5831199 77.9415851,38.1556853 C81.7448431,35.7282507 83.4866989,31.0798615 82.2152449,26.7508183 C80.9437909,22.4217751 76.9649201,19.4535819 72.4530477,19.468328 Z" id="Path"></path>            </g>        </g>    </g></g><g id="SvgjsG1178" featureKey="nameFeature-0" transform="matrix(1.7765775854983388,0,0,1.7765775854983388,117.86810723625727,-12.0807296145204)" fill="#111111"><path d="M22.24 11.52 l-3.12 6.08 c-1.44 -1.2 -3.28 -2 -5.2 -2 c-1.44 0 -3.36 0.84 -3.36 2.52 c0 1.76 2.12 2.44 3.48 2.88 l2 0.6 c4.2 1.24 7.44 3.36 7.44 8.24 c0 3 -0.72 6.08 -3.12 8.12 c-2.36 2 -5.52 2.84 -8.56 2.84 c-3.8 0 -7.52 -1.28 -10.6 -3.44 l3.36 -6.32 c1.96 1.72 4.28 3.12 6.96 3.12 c1.84 0 3.8 -0.92 3.8 -3.04 c0 -2.2 -3.08 -2.96 -4.76 -3.44 c-4.92 -1.4 -8.16 -2.68 -8.16 -8.52 c0 -6.12 4.36 -10.12 10.4 -10.12 c3.04 0 6.76 0.96 9.44 2.48 z M33.96 37.2 l-9.92 -17.72 l8.4 0 l5.48 10.52 l5.36 -10.52 l8.28 0 l-16.44 30.76 l-8.16 0 z M60.48 19.48 l0 2.64 l0.08 0 c1.68 -2.48 3.72 -3.32 6.56 -3.32 c5.52 0 7.72 3.48 7.72 8.52 l0 12.68 l-7.28 0 l0 -10 c0 -1.96 0.32 -5.4 -3.28 -5.4 c-2.96 0 -3.8 2.2 -3.8 4.76 l0 10.64 l-7.28 0 l0 -20.52 l7.28 0 z M95.08 40 l0 -2.28 l-0.08 0 c-1.28 2.04 -3.8 2.96 -6.2 2.96 c-6.08 0 -10.36 -5.08 -10.36 -10.96 s4.2 -10.92 10.28 -10.92 c2.36 0 4.84 0.88 6.36 2.68 l0 -14.68 l7.28 0 l0 33.2 l-7.28 0 z M90.64 25.119999999999997 c-2.96 0 -4.68 2.12 -4.68 4.64 c0 2.6 1.72 4.6 4.68 4.6 s4.68 -2 4.68 -4.6 c0 -2.52 -1.72 -4.64 -4.68 -4.64 z M117.64 25.119999999999997 c-2.96 0 -4.68 2.12 -4.68 4.64 c0 2.6 1.72 4.6 4.68 4.6 s4.68 -2 4.68 -4.6 c0 -2.52 -1.72 -4.64 -4.68 -4.64 z M129.35999999999999 19.48 l0 20.52 l-7.28 0 l0 -2.28 l-0.08 0 c-1.28 2.04 -3.8 2.96 -6.2 2.96 c-6.08 0 -10.36 -5.08 -10.36 -10.96 s4.2 -10.92 10.28 -10.92 c2.36 0 4.84 0.88 6.36 2.68 l0 -2 l7.28 0 z M141.48000000000002 19.48 l0 20.52 l-7.28 0 l0 -20.52 l7.28 0 z M137.84 7.520000000000003 c2.24 0 4.08 1.84 4.08 4.08 s-1.84 4.08 -4.08 4.08 s-4.08 -1.84 -4.08 -4.08 s1.84 -4.08 4.08 -4.08 z"></path></g>
			</g>
		</svg>
	